<svg width="1024" height="576" viewBox="0 0 1024 576" fill="none" xmlns="http://www.w3.org/2000/svg">
<g clip-path="url(#clip0_835_445)">
<rect width="1024" height="576" fill="white"/>
<rect width="1024" height="576" fill="#423D80"/>
<path d="M0 0H1024V576H0V0Z" fill="white"/>
<path d="M0 0H1024V576H0V0Z" fill="#423D80"/>
<path d="M767.869 282.168C731.252 361.444 825.573 394.555 872.62 401.334C950.073 418.591 1046.56 380.192 1036.27 216.342C1021.46 -19.3735 599.01 -76.9872 558.5 114.693C532.826 236.175 635.65 319.271 524.709 385.835C413.768 452.4 448.899 315.573 342.889 191.689C236.879 67.805 -84.8808 140.803 -80.5664 448.355C-76.252 755.908 192.502 598.472 120.391 500.474C48.2792 402.477 90.8067 213.261 232.565 221.89C374.322 230.518 373.128 370.692 427.366 416.301C481.604 461.91 635.813 412.86 629.649 301.303C619.077 109.953 725.635 43.7673 882.185 98.6214C968.135 128.738 969.016 214.322 919.709 232.196C870.402 250.07 801.874 208.551 767.869 282.168Z" fill="#242145"/>
<path d="M383.966 218.918C384.064 218.466 384.708 218.466 384.806 218.918L385.564 222.42C385.887 223.909 386.877 225.167 388.25 225.828L388.775 226.081C389.099 226.238 389.099 226.7 388.775 226.856L388.25 227.109C386.877 227.771 385.887 229.028 385.564 230.517L384.806 234.019C384.708 234.471 384.064 234.471 383.966 234.019L383.208 230.517C382.886 229.028 381.895 227.771 380.523 227.109L379.997 226.856C379.673 226.7 379.673 226.238 379.997 226.081L380.523 225.828C381.895 225.167 382.886 223.909 383.208 222.42L383.966 218.918Z" fill="#FFFEFF"/>
<path d="M368.572 518.466C368.765 517.575 370.037 517.575 370.23 518.466L371.725 525.372C372.36 528.309 374.314 530.789 377.021 532.093L378.057 532.593C378.696 532.901 378.696 533.812 378.057 534.12L377.021 534.62C374.314 535.925 372.36 538.404 371.725 541.341L370.23 548.247C370.037 549.138 368.765 549.138 368.572 548.247L367.077 541.341C366.442 538.404 364.488 535.925 361.781 534.62L360.745 534.12C360.106 533.812 360.106 532.901 360.745 532.593L361.781 532.093C364.488 530.789 366.442 528.309 367.077 525.372L368.572 518.466Z" fill="#FFFEFF"/>
<path d="M715.49 126.286C715.723 125.208 717.261 125.208 717.494 126.286L719.301 134.636C720.07 138.186 722.432 141.184 725.704 142.761L726.957 143.365C727.73 143.738 727.73 144.839 726.957 145.212L725.704 145.816C722.432 147.393 720.07 150.391 719.301 153.942L717.494 162.291C717.261 163.369 715.723 163.369 715.49 162.291L713.683 153.942C712.914 150.391 710.552 147.393 707.28 145.816L706.027 145.212C705.254 144.839 705.254 143.738 706.027 143.365L707.28 142.761C710.552 141.184 712.914 138.186 713.683 134.636L715.49 126.286Z" fill="#FFFEFF"/>
<path d="M938.025 516.487C938.259 515.409 939.796 515.409 940.029 516.487L941.836 524.837C942.605 528.387 944.967 531.385 948.239 532.962L949.492 533.566C950.265 533.939 950.265 535.04 949.492 535.413L948.239 536.017C944.967 537.595 942.605 540.592 941.836 544.143L940.029 552.493C939.796 553.57 938.259 553.57 938.025 552.493L936.218 544.143C935.45 540.592 933.087 537.595 929.815 536.017L928.562 535.413C927.789 535.04 927.789 533.939 928.562 533.566L929.815 532.962C933.087 531.385 935.45 528.387 936.218 524.837L938.025 516.487Z" fill="#FFFEFF"/>
<path opacity="0.3" d="M749.84 106.722C749.959 106.173 750.742 106.173 750.861 106.722L751.782 110.976C752.173 112.785 753.377 114.312 755.044 115.116L755.682 115.423C756.076 115.613 756.076 116.174 755.682 116.364L755.044 116.672C753.377 117.476 752.173 119.003 751.782 120.812L750.861 125.065C750.742 125.614 749.959 125.614 749.84 125.065L748.919 120.812C748.528 119.003 747.324 117.476 745.657 116.672L745.019 116.364C744.625 116.174 744.625 115.613 745.019 115.423L745.657 115.116C747.324 114.312 748.528 112.785 748.919 110.976L749.84 106.722Z" fill="#242145"/>
<path opacity="0.3" d="M506.679 18.1254C506.797 17.5764 507.581 17.5764 507.699 18.1254L508.62 22.3792C509.012 24.1879 510.215 25.7152 511.882 26.5188L512.52 26.8264C512.914 27.0164 512.914 27.5774 512.52 27.7673L511.882 28.075C510.215 28.8786 509.012 30.4058 508.62 32.2145L507.699 36.4684C507.581 37.0174 506.797 37.0174 506.679 36.4684L505.758 32.2145C505.366 30.4058 504.163 28.8786 502.496 28.075L501.858 27.7673C501.464 27.5774 501.464 27.0164 501.858 26.8264L502.496 26.5188C504.163 25.7152 505.366 24.1879 505.758 22.3792L506.679 18.1254Z" fill="#242145"/>
<path opacity="0.3" d="M467.896 28.8221C468.154 27.6306 469.854 27.6306 470.112 28.8221L472.11 38.0543C472.96 41.9798 475.572 45.2944 479.19 47.0385L480.575 47.7062C481.43 48.1183 481.43 49.336 480.575 49.7482L479.19 50.4159C475.572 52.16 472.96 55.4746 472.11 59.4001L470.112 68.6322C469.854 69.8238 468.154 69.8238 467.896 68.6322L465.898 59.4001C465.048 55.4746 462.437 52.16 458.819 50.4159L457.433 49.7482C456.578 49.336 456.578 48.1183 457.433 47.7062L458.819 47.0385C462.437 45.2944 465.048 41.9798 465.898 38.0543L467.896 28.8221Z" fill="#242145"/>
<path opacity="0.3" d="M891.273 500.5C891.391 499.951 892.175 499.951 892.293 500.5L893.214 504.754C893.606 506.563 894.809 508.09 896.476 508.894L897.114 509.201C897.508 509.391 897.508 509.952 897.114 510.142L896.476 510.45C894.809 511.254 893.606 512.781 893.214 514.59L892.293 518.843C892.175 519.392 891.391 519.392 891.273 518.843L890.352 514.59C889.96 512.781 888.757 511.254 887.09 510.45L886.452 510.142C886.058 509.952 886.058 509.391 886.452 509.201L887.09 508.894C888.757 508.09 889.96 506.563 890.352 504.754L891.273 500.5Z" fill="#242145"/>
<path d="M977.538 225.635C977.768 224.574 979.281 224.574 979.51 225.635L981.289 233.854C982.046 237.348 984.371 240.299 987.592 241.852L988.825 242.446C989.586 242.813 989.586 243.897 988.825 244.264L987.592 244.858C984.371 246.411 982.046 249.362 981.289 252.856L979.51 261.075C979.281 262.136 977.768 262.136 977.538 261.075L975.759 252.856C975.003 249.362 972.677 246.411 969.457 244.858L968.224 244.264C967.463 243.897 967.463 242.813 968.224 242.446L969.457 241.852C972.677 240.299 975.003 237.348 975.759 233.854L977.538 225.635Z" fill="#EB459F"/>
<path d="M821.826 165.33C817.449 181.662 800.662 191.354 784.33 186.978C780.488 185.948 777.013 184.232 774.003 181.996C764.216 174.729 759.335 161.972 762.682 149.482C767.058 133.15 783.845 123.458 800.177 127.834C816.51 132.21 826.202 148.997 821.826 165.33Z" fill="#D9D8E6"/>
<path d="M773.449 184.062L784.33 186.978C780.488 185.948 777.013 184.232 774.003 181.996L773.449 184.062Z" fill="#D9D8E6"/>
<path d="M896.891 185.443C892.515 201.775 875.727 211.468 859.395 207.092C855.188 205.964 851.422 204.013 848.223 201.459C839.003 194.097 834.498 181.721 837.747 169.596C842.123 153.264 858.911 143.571 875.243 147.948C891.575 152.324 901.267 169.111 896.891 185.443Z" fill="#D9D8E6"/>
<path d="M847.563 203.921L859.395 207.092C855.188 205.964 851.422 204.013 848.223 201.459L847.563 203.921Z" fill="#D9D8E6"/>
<path d="M801.26 128.124L875.243 147.948L862.326 196.153L788.344 176.329L801.26 128.124Z" fill="#D9D8E6"/>
<circle cx="781.422" cy="154.503" r="30.6152" transform="rotate(15 781.422 154.503)" fill="white"/>
<circle cx="856.487" cy="174.617" r="30.6152" transform="rotate(15 856.487 174.617)" fill="white"/>
<path d="M790.428 125.222L864.411 145.045L851.494 193.25L777.512 173.427L790.428 125.222Z" fill="white"/>
<circle cx="859.706" cy="162.607" r="5.80942" transform="rotate(15 859.706 162.607)" fill="#FF2EA2"/>
<circle cx="845.265" cy="171.609" r="5.80942" transform="rotate(15 845.265 171.609)" fill="#2859D1"/>
<circle cx="853.269" cy="186.629" r="5.80942" transform="rotate(15 853.269 186.629)" fill="#0EC2BC"/>
<circle cx="867.71" cy="177.624" r="5.80942" transform="rotate(15 867.71 177.624)" fill="#FFDA41"/>
<rect x="780.855" y="138.424" width="9.55079" height="30.7698" rx="2" transform="rotate(15 780.855 138.424)" fill="#423D80"/>
<rect x="797.518" y="153.873" width="9.55079" height="30.7698" rx="2" transform="rotate(105 797.518 153.873)" fill="#423D80"/>
<rect x="814.443" y="161.411" width="4.46047" height="10.4134" rx="2.23024" transform="rotate(45 814.443 161.411)" fill="#423D80"/>
<rect x="823.76" y="163.908" width="4.46047" height="10.4134" rx="2.23024" transform="rotate(45 823.76 163.908)" fill="#423D80"/>
<rect opacity="0.2" x="813.869" y="140.54" width="25.1367" height="7.73832" rx="1" transform="rotate(15 813.869 140.54)" fill="#423D80"/>
<path d="M666.287 508.134C660.798 496.069 666.128 481.839 678.193 476.349L752.31 442.626C764.374 437.137 778.605 442.467 784.094 454.532L817.47 527.885C819.597 532.56 815.248 537.573 810.319 536.127L783.942 528.388C778.415 526.767 772.489 527.187 767.246 529.573L713.53 554.013C701.465 559.503 687.235 554.173 681.745 542.108L666.287 508.134Z" fill="#808AFF"/>
<g opacity="0.4">
<mask id="path-28-inside-1_835_445" fill="white">
<path d="M673.546 502.835C672.39 494.901 676.155 486.843 683.316 482.735C684.235 482.208 685.382 482.607 685.875 483.544L687.096 485.861C687.602 486.822 687.242 488.005 686.33 488.594C680.904 492.096 678.639 496.276 676.641 502.796C676.089 504.595 673.818 504.697 673.546 502.835Z"/>
</mask>
<path d="M673.546 502.835C672.39 494.901 676.155 486.843 683.316 482.735C684.235 482.208 685.382 482.607 685.875 483.544L687.096 485.861C687.602 486.822 687.242 488.005 686.33 488.594C680.904 492.096 678.639 496.276 676.641 502.796C676.089 504.595 673.818 504.697 673.546 502.835Z" fill="#808AFF"/>
<path d="M683.316 482.735L681.326 479.266L681.326 479.266L683.316 482.735ZM673.546 502.835L677.505 502.258L673.546 502.835ZM685.875 483.544L682.336 485.408L682.336 485.408L685.875 483.544ZM687.096 485.861L683.557 487.726L683.557 487.726L687.096 485.861ZM686.33 488.594L688.499 491.954L688.499 491.954L686.33 488.594ZM676.641 502.796L680.465 503.968L680.465 503.968L676.641 502.796ZM681.326 479.266C672.715 484.205 668.199 493.882 669.588 503.412L677.505 502.258C676.581 495.919 679.595 489.481 685.306 486.205L681.326 479.266ZM682.336 485.408L683.557 487.726L690.635 483.997L689.414 481.68L682.336 485.408ZM684.16 485.233C677.637 489.444 674.962 494.624 672.816 501.624L680.465 503.968C682.316 497.928 684.171 494.748 688.499 491.954L684.16 485.233ZM683.557 487.726C683.018 486.702 683.479 485.673 684.16 485.233L688.499 491.954C691.005 490.336 692.187 486.942 690.635 483.997L683.557 487.726ZM669.588 503.412C669.775 504.695 670.368 505.959 671.453 506.896C672.525 507.821 673.842 508.22 675.094 508.187C677.613 508.121 679.725 506.383 680.465 503.968L672.816 501.624C673.005 501.008 673.705 500.221 674.883 500.19C675.464 500.175 676.128 500.363 676.681 500.84C677.246 501.328 677.453 501.907 677.505 502.258L669.588 503.412ZM685.306 486.205C684.048 486.927 682.781 486.252 682.336 485.408L689.414 481.68C687.982 478.961 684.422 477.489 681.326 479.266L685.306 486.205Z" fill="white" mask="url(#path-28-inside-1_835_445)"/>
</g>
<circle cx="705.448" cy="509.249" r="9.7658" transform="rotate(-24.4655 705.448 509.249)" fill="#242145"/>
<circle cx="732.327" cy="497.019" r="9.7658" transform="rotate(-24.4655 732.327 497.019)" fill="#242145"/>
<circle cx="759.208" cy="484.789" r="9.7658" transform="rotate(-24.4655 759.208 484.789)" fill="#242145"/>
<circle cx="692.268" cy="481.719" r="2.62869" transform="rotate(-24.4655 692.268 481.719)" fill="#B3B9FF"/>
<path d="M188.212 461.477C188.458 460.343 190.074 460.343 190.319 461.477L192.22 470.256C193.028 473.99 195.512 477.142 198.952 478.8L200.27 479.435C201.083 479.827 201.083 480.985 200.27 481.377L198.952 482.012C195.512 483.671 193.028 486.823 192.22 490.556L190.319 499.336C190.074 500.469 188.458 500.469 188.212 499.336L186.312 490.556C185.504 486.823 183.02 483.671 179.579 482.012L178.262 481.377C177.449 480.985 177.449 479.827 178.262 479.435L179.579 478.8C183.02 477.142 185.504 473.99 186.312 470.256L188.212 461.477Z" fill="#B669FF"/>
<path d="M112.983 351.377C113.136 350.666 114.15 350.666 114.303 351.377L115.495 356.88C116.001 359.22 117.558 361.196 119.715 362.236L120.54 362.634C121.05 362.879 121.05 363.605 120.54 363.851L119.715 364.249C117.558 365.289 116.001 367.265 115.495 369.605L114.303 375.108C114.15 375.818 113.136 375.818 112.983 375.108L111.791 369.605C111.285 367.265 109.728 365.289 107.571 364.249L106.746 363.851C106.236 363.605 106.236 362.879 106.746 362.634L107.571 362.236C109.728 361.196 111.285 359.22 111.791 356.88L112.983 351.377Z" fill="#242145"/>
<path d="M174.641 408.743C176.455 410.382 176.843 413.283 175.343 415.881L175.149 416.217C173.926 418.335 171.609 419.579 169.168 419.427C165.608 419.207 162.229 421.02 160.446 424.109L147.451 446.617C143.733 453.057 142.164 460.514 142.972 467.907L148.538 518.842C149.284 525.666 146.887 531.712 142.907 535.433C138.99 539.096 133.429 540.634 127.256 538.371C103.885 529.803 76.8197 513.739 56.8519 497.204C51.624 492.875 49.996 486.993 51.1471 481.482C52.3111 475.909 56.3581 470.593 62.777 467.767L108.138 447.795C114.944 444.798 120.617 439.71 124.336 433.27L137.33 410.763C139.114 407.674 138.995 403.842 137.024 400.869C135.672 398.83 135.59 396.202 136.813 394.084L137.053 393.669C138.538 391.096 141.146 390.05 143.394 390.811C152.587 393.923 166.107 401.036 174.641 408.743Z" fill="#8CD9FF" stroke="url(#paint0_linear_835_445)" stroke-width="6"/>
<path d="M56.016 490.226L74.0996 491.619L142.677 489.664L143.088 476.072L146.091 489.664L147.063 505.752L146.091 526.334L141.763 538.701L125.509 536.934L97.5956 525.451L52.1035 491.619V482.786L56.016 490.226Z" fill="#B669FF"/>
<ellipse cx="98.778" cy="490.178" rx="42.6901" ry="5.66253" fill="#CE85FF"/>
<path d="M174.641 408.743C176.455 410.382 176.843 413.283 175.343 415.881L175.149 416.217C173.926 418.335 171.609 419.579 169.168 419.427C165.608 419.207 162.229 421.02 160.446 424.109L147.451 446.617C143.733 453.057 142.164 460.514 142.972 467.907L148.538 518.842C149.284 525.666 146.887 531.712 142.907 535.433C138.99 539.096 133.429 540.634 127.256 538.371C103.885 529.803 76.8197 513.739 56.8519 497.204C51.624 492.875 49.996 486.993 51.1471 481.482C52.3111 475.909 56.3581 470.593 62.777 467.767L108.138 447.795C114.944 444.798 120.617 439.71 124.336 433.27L137.33 410.763C139.114 407.674 138.995 403.842 137.024 400.869C135.672 398.83 135.59 396.202 136.813 394.084L137.053 393.669C138.538 391.096 141.146 390.05 143.394 390.811C152.587 393.923 166.107 401.036 174.641 408.743Z" stroke="url(#paint1_linear_835_445)" stroke-width="6"/>
<ellipse cx="157.528" cy="402.47" rx="18.3118" ry="3.63881" transform="rotate(30 157.528 402.47)" fill="#66BAE3"/>
<path fill-rule="evenodd" clip-rule="evenodd" d="M134.944 408.865C135.706 409.679 136.538 410.49 137.433 411.287C141.171 414.615 146.123 417.824 151.908 420.223C152.674 420.541 153.551 420.178 153.869 419.413C154.186 418.647 153.823 417.77 153.058 417.452C147.576 415.179 142.911 412.147 139.428 409.047C137.833 407.626 136.512 406.215 135.478 404.878C135.73 406.212 135.554 407.612 134.944 408.865Z" fill="url(#paint2_linear_835_445)"/>
<ellipse cx="79.8005" cy="489.879" rx="5.10423" ry="1.38873" fill="#B669FF"/>
<ellipse opacity="0.3" cx="110.079" cy="491.566" rx="3.71524" ry="1.38873" fill="#D3F1FF"/>
<circle opacity="0.2" cx="130.043" cy="502.101" r="3.19457" fill="black"/>
<circle opacity="0.2" cx="124.745" cy="525.365" r="1.83219" fill="black"/>
<circle cx="96.9453" cy="505.934" r="3.28419" fill="#CE85FF"/>
<path d="M95.722 468.821L79.5269 478.157C78.0282 479.021 76.1124 478.493 75.2688 476.983C74.3765 475.385 75.053 473.367 76.7276 472.63L93.8377 465.1C94.843 464.658 96.0192 465.069 96.5288 466.042C97.0488 467.035 96.6928 468.261 95.722 468.821Z" fill="white"/>
<rect x="-24.6094" y="35.7227" width="100.951" height="129.658" transform="rotate(-28.9967 -24.6094 35.7227)" fill="#2859D1" stroke="#2859D1" stroke-linejoin="round"/>
<path d="M65.3146 -9.80054L-22.4051 38.3917C-23.9846 44.1358 -13.7273 44.6493 -7.92345 45.128L85.4192 -8.90301L65.3146 -9.80054Z" fill="white" stroke="white" stroke-linejoin="round"/>
<rect x="-6.67824" y="40.8793" width="107.41" height="133.572" transform="rotate(-28.9967 -6.67824 40.8793)" fill="#2859D1" stroke="#2859D1" stroke-linejoin="round"/>
<path d="M-22.9035 37.1814C-23.2303 36.7803 -23.8091 36.6947 -24.238 36.984C-24.6669 37.2734 -24.8042 37.8421 -24.5547 38.2953L35.9458 148.194C37.8818 152.536 40.2247 155.43 42.8072 157.185C45.4094 158.953 48.1855 159.518 50.8749 159.313C56.1885 158.909 61.1459 155.515 64.0777 152.583C64.3911 152.269 64.4608 151.787 64.2492 151.398L2.73015 38.2331C2.60197 37.9973 2.38438 37.823 2.12632 37.7492C1.86826 37.6755 1.59139 37.7086 1.35798 37.841C-1.78354 39.6241 -6.77984 40.8584 -11.5976 40.9045C-16.4689 40.9512 -20.7824 39.7845 -22.9035 37.1814Z" fill="#2859D1" stroke="#2859D1" stroke-width="2" stroke-linecap="round" stroke-linejoin="round"/>
<path d="M7.27686 47.1606L58.3267 141.943" stroke="#1E39C1" stroke-width="3" stroke-linecap="round" stroke-linejoin="round"/>
<rect x="32.8018" y="63.1976" width="72.9299" height="14.5289" rx="1" transform="rotate(-28.9967 32.8018 63.1976)" fill="#1E39C1"/>
<rect x="1009.77" y="6.96817" width="89.6904" height="115.163" transform="rotate(46.0033 1009.77 6.96817)" fill="#B669FF" stroke="#B669FF" stroke-linejoin="round"/>
<path d="M1069.44 73.6674L1007.99 9.55021C1002.7 9.51564 1004.61 18.4251 1005.54 23.5096L1073.28 91.1052L1069.44 73.6674Z" fill="white" stroke="white" stroke-linejoin="round"/>
<rect x="1009.47" y="23.5214" width="95.4218" height="118.636" transform="rotate(46.0033 1009.47 23.5214)" fill="#B669FF" stroke="#B669FF" stroke-linejoin="round"/>
<path d="M1009 8.91095C1009.3 8.49148 1009.23 7.91027 1008.84 7.57087C1008.45 7.23147 1007.87 7.24596 1007.5 7.60426L927.199 84.6957C923.912 87.3606 921.956 90.0484 921.037 92.689C920.109 95.3521 920.265 97.8874 921.065 100.167C922.644 104.665 926.719 108.152 929.916 109.998C930.3 110.219 930.784 110.162 931.105 109.857L1013.97 31.139C1014.17 30.9541 1014.28 30.6988 1014.28 30.4304C1014.29 30.1621 1014.18 29.9032 1013.99 29.7121C1011.76 27.4455 1009.56 23.4649 1008.42 19.3602C1007.26 15.2039 1007.29 11.2833 1009 8.91095Z" fill="#B669FF" stroke="#B669FF" stroke-width="2" stroke-linecap="round" stroke-linejoin="round"/>
<path d="M1007.29 37.0046L937.772 102.527" stroke="#9254CC" stroke-width="3" stroke-linecap="round" stroke-linejoin="round"/>
<rect x="999.402" y="62.5651" width="64.7136" height="12.8921" rx="1" transform="rotate(46.0033 999.402 62.5651)" fill="#9254CC"/>
<rect x="49.0774" y="298.779" width="51.6945" height="41.7426" rx="2" transform="rotate(-21.7685 49.0774 298.779)" fill="#FFC619"/>
<rect x="49.0774" y="298.779" width="51.6945" height="41.7426" rx="2" transform="rotate(-21.7685 49.0774 298.779)" fill="url(#paint3_linear_835_445)"/>
<path d="M86.5565 283.813L84.4717 278.593C81.5006 271.152 73.0604 267.529 65.6201 270.501V270.501C58.1798 273.472 54.5568 281.912 57.528 289.352L59.6127 294.573" stroke="#FFC619" stroke-width="9"/>
<circle cx="78.2833" cy="302.214" r="6.01814" transform="rotate(-21.7685 78.2833 302.214)" fill="black"/>
<path d="M77.8555 301.144L89.7483 314.78C90.6541 315.819 90.2626 317.441 88.9827 317.952L81.3672 320.993C80.0873 321.505 78.6861 320.598 78.6273 319.221L77.8555 301.144Z" fill="black"/>
<rect x="53.9771" y="292.652" width="9.0011" height="3.68999" transform="rotate(-21.5352 53.9771 292.652)" fill="#FD9F17"/>
<rect x="81.0125" y="281.984" width="8.96419" height="3.68999" transform="rotate(-21.5352 81.0125 281.984)" fill="#FD9F17"/>
<path d="M956.174 489.979C952.886 495.674 930.756 489.054 906.747 475.192C882.737 461.33 865.939 445.476 869.227 439.78C872.516 434.084 894.645 440.704 918.655 454.566C942.664 468.428 959.462 484.283 956.174 489.979Z" fill="#6C3034"/>
<path d="M869.227 439.78C872.516 434.084 894.645 440.704 918.655 454.566C942.664 468.428 959.462 484.283 956.174 489.979L963.442 477.39L876.495 427.191L869.227 439.78Z" fill="#6C3034"/>
<ellipse cx="920.172" cy="451.939" rx="50.1988" ry="11.9083" transform="rotate(30 920.172 451.939)" fill="#904E3F"/>
<circle cx="943.583" cy="411.389" r="48.2407" transform="rotate(30 943.583 411.389)" fill="#8CD9FF" stroke="url(#paint4_linear_835_445)" stroke-width="6"/>
<path opacity="0.2" d="M941.046 375.457C938.022 375.623 934.993 376.349 931.692 377.424C937.597 372.367 946.075 371.011 953.401 374.361L951.911 377.353C951.911 377.353 951.911 377.353 951.911 377.353C951.909 377.354 951.903 377.358 951.894 377.361C951.867 377.371 951.827 377.373 951.785 377.356C947.998 375.836 944.573 375.264 941.046 375.457Z" stroke="white" stroke-width="4" stroke-linecap="round"/>
<path d="M957.947 396.734C957.792 396.567 957.631 396.401 957.464 396.235C950.191 389.016 942.086 391.65 938.85 393.84C938.403 394.128 937.97 394.441 937.554 394.779C936.828 393.32 935.877 391.844 934.633 390.471C934.133 389.919 933.255 390.046 932.936 390.719C931.65 393.426 930.496 397.516 931.349 402.011C930.937 402.268 930.498 402.484 930.037 402.654L927.217 403.693C922.566 405.405 919.059 409.298 917.84 414.102C915.748 422.341 919.846 430.897 927.576 434.434L932.479 436.677C942.418 441.223 953.979 435.193 955.938 424.441L956.71 420.204C963.5 419.789 967.932 415.579 970.182 412.354C970.608 411.743 970.284 410.918 969.556 410.757C966.072 409.987 962.798 410.345 960.228 411.001C960.288 410.914 960.324 410.811 960.33 410.703C960.397 410.51 960.459 410.317 960.517 410.123C961.055 408.536 961.576 406.351 961.327 403.927C961.494 403.889 961.629 403.783 961.707 403.643C962.699 403.931 963.767 403.886 964.747 403.438C967.051 402.386 968.396 400.388 966.853 397.011C965.31 393.634 962.92 393.343 960.616 394.396C959.629 394.846 958.892 395.632 958.461 396.58C958.309 396.55 958.146 396.582 958.011 396.68C957.988 396.697 957.967 396.715 957.947 396.734Z" fill="url(#paint5_linear_835_445)"/>
<path d="M925.752 378.679C925.979 378.428 926.387 378.664 926.284 378.985L925.484 381.478C925.144 382.537 925.312 383.695 925.938 384.614L926.178 384.966C926.326 385.184 926.158 385.476 925.895 385.456L925.47 385.425C924.361 385.342 923.275 385.776 922.527 386.6L920.768 388.538C920.541 388.789 920.134 388.553 920.237 388.231L921.036 385.739C921.376 384.68 921.209 383.522 920.582 382.603L920.342 382.25C920.194 382.033 920.363 381.741 920.625 381.76L921.05 381.792C922.16 381.875 923.246 381.441 923.994 380.617L925.752 378.679Z" fill="#3C50DC"/>
<path opacity="0.2" d="M964.493 436.199C964.72 435.948 965.128 436.184 965.025 436.506L964.225 438.998C963.885 440.057 964.053 441.215 964.679 442.134L964.919 442.487C965.067 442.704 964.898 442.996 964.636 442.977L964.211 442.945C963.101 442.862 962.015 443.296 961.268 444.12L959.509 446.058C959.282 446.309 958.874 446.073 958.978 445.752L959.777 443.259C960.117 442.2 959.949 441.042 959.323 440.123L959.083 439.771C958.935 439.553 959.104 439.261 959.366 439.281L959.791 439.312C960.901 439.395 961.987 438.961 962.734 438.137L964.493 436.199Z" fill="#3C50DC"/>
<path opacity="0.2" d="M225.358 45.2175C230.021 40.6605 237.47 40.6605 242.133 45.2175L250.923 53.8076C254.042 56.8559 258.569 57.9719 262.748 56.7223L274.523 53.201C280.77 51.3329 287.365 54.7944 289.376 60.9964L293.167 72.6875C294.512 76.8362 298.003 79.9284 302.283 80.7638L314.346 83.118C320.745 84.3668 324.977 90.4968 323.875 96.923L321.799 109.037C321.062 113.335 322.715 117.695 326.118 120.424L335.705 128.115C340.79 132.195 341.688 139.589 337.727 144.767L330.259 154.528C327.608 157.992 327.046 162.621 328.79 166.619L333.705 177.883C336.313 183.859 333.672 190.824 327.757 193.568L316.608 198.74C312.652 200.576 310.003 204.413 309.69 208.764L308.807 221.022C308.338 227.525 302.763 232.465 296.251 232.146L283.975 231.545C279.619 231.331 275.49 233.498 273.191 237.205L266.712 247.649C263.275 253.189 256.043 254.972 250.425 251.663L239.835 245.426C236.077 243.213 231.414 243.213 227.656 245.426L217.066 251.663C211.448 254.972 204.216 253.189 200.779 247.649L194.3 237.205C192.001 233.498 187.872 231.331 183.516 231.545L171.24 232.146C164.728 232.465 159.153 227.525 158.684 221.022L157.801 208.764C157.488 204.413 154.839 200.576 150.883 198.74L139.734 193.568C133.82 190.824 131.178 183.859 133.786 177.883L138.701 166.619C140.445 162.621 139.883 157.992 137.233 154.528L129.765 144.767C125.803 139.589 126.701 132.195 131.787 128.115L141.374 120.425C144.776 117.695 146.429 113.335 145.692 109.037L143.616 96.9231C142.515 90.4968 146.746 84.3668 153.145 83.118L165.208 80.7638C169.488 79.9284 172.979 76.8362 174.324 72.6875L178.115 60.9964C180.126 54.7944 186.722 51.3329 192.968 53.201L204.743 56.7223C208.922 57.9719 213.449 56.8559 216.569 53.8076L225.358 45.2175Z" fill="#FF2EA2"/>
<path opacity="0.2" d="M207 81.5339C210.325 75.9253 217.519 73.9975 223.203 77.1924L226.244 78.9019C230.046 81.0391 234.708 80.9452 238.421 78.6567L241.391 76.826C246.941 73.4049 254.207 75.0414 257.755 80.5116L259.654 83.4387C262.027 87.0979 266.199 89.1814 270.55 88.8804L274.03 88.6396C280.535 88.1897 286.208 93.0157 286.807 99.508L287.128 102.982C287.529 107.325 290.255 111.109 294.247 112.864L297.441 114.268C303.409 116.893 306.19 123.803 303.704 129.83L302.373 133.055C300.71 137.087 301.365 141.704 304.085 145.113L306.26 147.841C310.325 152.938 309.576 160.349 304.574 164.53L301.897 166.768C298.55 169.565 296.985 173.957 297.808 178.24L298.467 181.666C299.697 188.069 295.59 194.283 289.218 195.661L285.807 196.398C281.545 197.319 278.117 200.481 276.856 204.656L275.847 207.996C273.961 214.237 267.437 217.83 261.154 216.089L257.792 215.157C253.589 213.991 249.084 215.198 246.027 218.309L243.582 220.797C239.011 225.447 231.565 225.597 226.811 221.135L224.267 218.747C221.087 215.762 216.538 214.738 212.385 216.071L209.064 217.138C202.856 219.131 196.192 215.803 194.057 209.643L192.914 206.347C191.485 202.226 187.933 199.205 183.637 198.455L180.2 197.856C173.777 196.737 169.423 190.693 170.395 184.246L170.915 180.796C171.565 176.483 169.824 172.158 166.368 169.498L163.603 167.37C158.436 163.393 157.389 156.019 161.246 150.762L163.31 147.949C165.889 144.432 166.358 139.793 164.534 135.831L163.074 132.662C160.347 126.74 162.848 119.724 168.706 116.861L171.84 115.329C175.759 113.415 178.33 109.524 178.556 105.169L178.736 101.685C179.074 95.1735 184.548 90.123 191.066 90.3106L194.553 90.411C198.912 90.5366 202.997 88.2868 205.221 84.5351L207 81.5339Z" fill="#FF2EA2"/>
<path d="M591.911 229.255L423.349 211.032L586.005 326.924L620.297 389.851C630.941 409.385 652.304 420.583 674.424 418.223L798.838 404.954C813.807 404.954 817.579 401.667 817.579 391.102L811.542 288.509C777.416 296.192 747.256 311.792 684.776 348.511C681.701 338.397 673.959 334.965 665.27 338.397L616.797 246.181C611.838 236.747 602.508 230.4 591.911 229.255Z" fill="#2859D1"/>
<path d="M442.414 255.139L594.499 263.7L618.875 442.171C620.506 454.108 614.593 465.811 604.016 471.579C605.939 474.32 602.684 484.117 608.045 484.825C617.16 486.029 631.357 556.068 637.172 582.004H415.988C425.616 514.203 438.627 484.825 438.627 484.825C438.627 484.825 440.326 474.728 442.414 471.579C431.779 467.818 425.029 457.345 425.995 446.105L442.414 255.139Z" fill="url(#paint6_linear_835_445)"/>
<path d="M431.566 216.623C431.566 208.196 438.248 199.481 453.793 202.24L465.851 218.075L431.566 216.623Z" fill="#D7DADD"/>
<path d="M420.426 210.687C433.519 211.134 444.771 212.382 460.934 215.181L452.969 267.702C447.946 322.037 446.171 352.561 448.899 407.281C448.743 463.502 408.561 468.214 332.065 473.401C289.027 474.927 286.166 469.056 289.118 411.163L289.565 370.305C323.983 374.182 342.251 377.298 371.048 386.294C371.25 376.158 374.498 372.951 381.238 368.006C381.238 368.006 387.927 353.609 394.829 311.081C401.402 270.577 400.78 233.682 400.706 230.261C400.702 230.07 400.7 229.906 400.704 229.716C400.93 218.977 409.692 210.32 420.426 210.687Z" fill="#2859D1"/>
<path d="M422.203 210.947L422.093 210.748C437.139 211.085 445.557 212.09 460.57 214.594L576.343 228.389C599.222 275.063 605.964 334.787 560.174 340.651C498.298 348.576 467.11 292.168 422.203 210.947Z" fill="#0EC2BC"/>
<path fill-rule="evenodd" clip-rule="evenodd" d="M555.041 194.726L557.803 183.977C571.61 187.921 576.541 205.279 567.862 214.451C606.468 269.11 562.404 323.902 510.112 283.574C496.017 269.643 481.057 248.446 461.4 215.968C461.265 215.677 461.13 215.385 460.995 215.093L450.225 202.29C440.484 193.485 443.214 186.034 451.082 181.306L473.267 159.952L500.993 206.037C523.698 183.361 535.807 177.716 555.041 194.726Z" fill="#D7DADD"/>
<path d="M515.338 122.183C548.129 141.031 566.719 163.752 555.099 194.735L497.524 209.194L467.057 159.363L515.338 122.183Z" fill="#C65C47"/>
<path d="M538.94 206.519L559.769 210.079C540.534 193.069 528.425 198.714 505.72 221.39L477.995 175.305L455.809 196.659C447.941 201.387 466.04 205.703 475.782 214.508L470.04 229.804C535.878 372.837 617.075 298.136 572.59 229.804C557.163 217.753 552.747 210.464 538.94 206.519Z" fill="#008FB7"/>
<path d="M557.803 183.977L555.042 194.726C535.807 177.716 523.698 183.36 500.993 206.036L473.267 159.952L451.082 181.306C443.214 186.034 440.484 193.485 450.225 202.29L460.995 215.093C526.833 358.126 618.521 286.175 567.862 214.451C576.541 205.279 571.61 187.921 557.803 183.977Z" fill="#D7DADD"/>
<path d="M537.011 196.708C551.059 196.708 551.69 185.535 543.714 177.839C539.301 173.581 532.213 173.626 527.422 177.454C517.054 185.738 518.447 197.499 537.011 196.708Z" fill="#DB806E"/>
<ellipse rx="4.41565" ry="6.01548" transform="matrix(-1 0 0 1 512.168 169.29)" fill="black"/>
<ellipse rx="4.41565" ry="6.01548" transform="matrix(-1 0 0 1 547.494 169.29)" fill="black"/>
<path d="M522.693 153.958C522.693 160.665 519.147 159.804 508.077 159.804C500.075 159.804 493.989 160.853 493.989 153.958C493.989 150.12 497.201 145.328 509.084 145.184C520.968 145.041 522.693 150.454 522.693 153.958Z" fill="#D7DADD"/>
<path d="M560.929 153.958C560.929 160.665 557.383 159.804 546.312 159.804C538.31 159.804 532.225 160.853 532.225 153.958C532.225 150.12 535.437 145.328 547.32 145.184C559.204 145.041 560.929 150.454 560.929 153.958Z" fill="#D7DADD"/>
<path d="M471.189 181.753C448.463 185.047 449.039 195.833 474.647 204.808L471.189 181.753Z" fill="#C65C47"/>
<path d="M451.664 180.887L516.583 123.11C485.909 97.8969 423.09 88.3389 379.075 93.8019L376.974 103.046C400.981 119.259 414.8 127.885 440.949 141.284C438.848 157.461 442.839 168.701 451.664 180.887Z" fill="#0EC2BC"/>
<path fill-rule="evenodd" clip-rule="evenodd" d="M445.848 171.596L462.903 156.724C459.332 145.379 457.966 135.189 466.895 127.205C459.332 118.067 458.807 109.032 464.374 99.6832L464.611 99.557C485.095 104.67 503.682 112.505 516.584 123.11L451.664 180.886C449.4 177.76 447.455 174.697 445.848 171.596Z" fill="#FFDAA2"/>
<ellipse rx="11.4719" ry="16.5953" transform="matrix(-0.609099 0.793094 0.793094 0.609099 490.107 117.379)" fill="#FF78B9"/>
<path d="M314.495 464.331L309.345 389.039L298.021 412.604C297.375 421.886 296.359 442.86 297.456 452.498C298.554 462.135 308.546 464.733 314.495 464.331Z" fill="black"/>
<path d="M549.776 209.681H516.323C514.647 209.681 513.768 211.568 514.923 212.782C519.536 217.633 529.287 226.468 539.123 226.468C546.656 226.468 550.316 216.641 551.619 212.025C551.96 210.816 551.032 209.681 549.776 209.681Z" fill="#020202"/>
<path fill-rule="evenodd" clip-rule="evenodd" d="M550.305 209.752C547.684 214.024 545.951 216.328 542.248 219.796C543.178 221.717 543.802 223.164 544.3 224.696C542.825 225.786 541.109 226.469 539.123 226.469C529.287 226.469 519.535 217.634 514.923 212.783C513.768 211.568 514.647 209.682 516.322 209.682H549.776C549.96 209.682 550.137 209.707 550.305 209.752Z" fill="#FFFEFF"/>
<path d="M796.5 394.618L798.689 309.345L807.32 325.962C809.553 346.142 813.297 388.126 810.411 394.618C807.526 401.11 799.935 397.323 796.5 394.618Z" fill="black"/>
<path d="M522.104 255.568C527.95 263.973 539.278 267.261 550.97 263.973" stroke="#ADACAC" stroke-width="3" stroke-linecap="round"/>
<path d="M895.145 251.251L807.903 289.349C802.571 291.677 799.067 296.878 798.911 302.694L797.802 344.15L839.636 321.803L870.792 338.313C877.581 341.911 885.817 341.535 892.17 337.212C911.052 324.365 923.495 314.453 939.259 298.13C941.468 295.843 941.456 292.224 939.267 289.918L936.946 287.471C935.098 285.523 932.182 285.04 929.804 286.288L903.521 300.087L910.681 289.115C911.551 287.78 911.227 285.998 909.942 285.056L904.071 280.751C902.255 279.42 899.773 279.467 898.009 280.865L880.29 294.91L867.404 286.735L902.455 262.43C903.623 261.62 904.077 260.093 903.459 258.813C902.131 256.063 900.75 254.103 898.294 251.768C897.453 250.969 896.209 250.786 895.145 251.251Z" fill="#C65C47"/>
<path fill-rule="evenodd" clip-rule="evenodd" d="M892.734 285.331L861.546 310.604C857.172 310.747 847.651 309.464 844.554 303.184C842.201 298.412 839.657 285.932 837.989 276.248L895.145 251.252C896.209 250.787 897.454 250.969 898.295 251.769C900.752 254.103 902.132 256.064 903.46 258.813C904.078 260.093 903.624 261.62 902.455 262.43L867.405 286.736L880.291 294.911L893.308 284.593L892.734 285.331Z" fill="#DB806E"/>
<path fill-rule="evenodd" clip-rule="evenodd" d="M904.113 299.775L884.962 325.957C884.473 326.625 884.618 327.564 885.287 328.053C885.956 328.542 886.894 328.396 887.383 327.728L910.147 296.607L904.113 299.775Z" fill="#864A3F"/>
<path d="M950.807 325.015C952.131 316.238 935.105 311.357 926.932 310.066L907.036 326.628C921.411 329.783 949.086 336.414 950.807 325.015Z" fill="#864A3F"/>
<path fill-rule="evenodd" clip-rule="evenodd" d="M950.875 324.296L917.117 318.236L926.932 310.066C934.879 311.321 951.196 315.971 950.875 324.296Z" fill="#DB806E"/>
<path fill-rule="evenodd" clip-rule="evenodd" d="M371.058 385.868C371.091 384.753 371.162 383.723 371.271 382.767C385.912 387.783 399.974 394.886 406.894 414.657C407.167 415.439 406.755 416.294 405.973 416.568C405.191 416.842 404.336 416.43 404.062 415.648C397.715 397.514 385.094 390.757 371.058 385.868Z" fill="black"/>
<path fill-rule="evenodd" clip-rule="evenodd" d="M683.531 345.274C674.286 352.115 666.867 361.561 661.036 375.069C660.708 375.83 661.058 376.713 661.819 377.041C662.58 377.369 663.462 377.019 663.791 376.258C669.279 363.544 676.16 354.648 684.671 348.169C684.339 347.132 683.958 346.166 683.531 345.274Z" fill="black"/>
<path d="M309.837 390.751C309.22 380.839 301.875 372.615 292.079 370.987C279.867 368.742 270.987 356.218 262.551 347.109C254.408 338.318 242.158 333.442 236.371 338.361C230.577 343.286 229.716 346.074 229.228 348.477C224.945 343.439 212.322 336.538 205.849 344.436C202.671 348.314 203.83 353.384 206.156 356.988C207.544 359.139 207.192 362.108 205.71 364.194C205.004 365.188 204.367 366.52 203.925 368.355C202.488 374.322 206.897 378.837 207.428 382.487C207.877 385.57 202.499 387.218 205.644 396.343C208.475 404.558 227.854 408.907 240.715 412.333C261.104 417.765 261.852 408.25 269.273 409.893C283.818 413.115 311.92 426.016 311.92 426.016C311.322 413.643 310.562 402.402 309.837 390.751Z" fill="#C65C47"/>
<path d="M234.832 399.269C232.479 401.317 225.302 404.394 215.416 400.314" stroke="#864A3F" stroke-width="3" stroke-linecap="round"/>
<path d="M216.7 208.965H250.791L238.171 998.139H229.321L216.7 208.965Z" fill="#904E3F"/>
<path fill-rule="evenodd" clip-rule="evenodd" d="M248.442 355.835L248.376 359.994C248.325 359.954 248.276 359.911 248.229 359.864L240.691 352.327C239.847 351.483 239.373 350.338 239.373 349.145V323.535C239.373 322.378 239.819 321.266 240.617 320.429L249.152 311.481L249.081 315.902L242.788 322.499C242.522 322.778 242.373 323.149 242.373 323.535V349.145C242.373 349.543 242.531 349.924 242.813 350.205L248.442 355.835Z" fill="#6C3034"/>
<path fill-rule="evenodd" clip-rule="evenodd" d="M247.962 374.038L248.033 369.58L243.696 374.198C240.301 377.814 238.411 382.587 238.411 387.547V440.679C238.411 441.508 239.082 442.179 239.911 442.179C240.739 442.179 241.411 441.508 241.411 440.679V387.547C241.411 383.35 243.01 379.311 245.883 376.252L247.962 374.038Z" fill="#6C3034"/>
<path d="M208.775 109.943L233.818 87.902L258.861 109.943V196.382L233.818 209.986L208.775 196.382V109.943Z" fill="#FF2EA2"/>
<path d="M220.687 115.025L233.818 103.469L246.948 115.025V199.103L233.818 206.235L220.687 199.103V115.025Z" fill="url(#paint7_linear_835_445)"/>
<path d="M206.438 201.024L217.452 211.539H240.91L219.115 193.145C214.402 189.167 211.574 183.393 211.323 177.23L210.53 157.816C210.437 155.542 207.225 155.164 206.607 157.354L200.458 179.135C198.245 186.976 200.546 195.398 206.438 201.024Z" fill="#904E3F"/>
<path fill-rule="evenodd" clip-rule="evenodd" d="M220.24 430.28L218.969 350.844H248.522L247.252 430.28H220.24Z" fill="url(#paint8_linear_835_445)"/>
<path d="M261.182 201.038L250.183 211.54H226.725L248.476 193.183C253.215 189.183 256.046 183.369 256.272 177.172L256.987 157.587C257.07 155.31 260.288 154.922 260.91 157.114L267.154 179.121C269.381 186.969 267.082 195.405 261.182 201.038Z" fill="#904E3F"/>
<path d="M232.207 164.826C232.38 164.136 232.999 163.652 233.71 163.652C234.515 163.652 235.186 164.269 235.254 165.071L237.097 186.88C237.708 194.11 243.481 199.825 250.717 200.364L254.794 200.667L236.388 221.551L209.31 195.889C217.442 197.277 225.368 192.182 227.369 184.178L232.207 164.826Z" fill="#904E3F"/>
<path d="M236.107 352.841C237.4 347.078 229.759 347.496 217.65 341.707L213.47 395.84C216.716 399.903 221.288 400.898 228.559 400.235C245.418 396.055 231.202 384.301 237.226 377.365C242.046 371.817 231.9 362.604 227.718 359.525C230.083 359.218 235.073 357.45 236.107 352.841Z" fill="#C65C47"/>
<mask id="mask0_835_445" style="mask-type:alpha" maskUnits="userSpaceOnUse" x="203" y="336" width="100" height="88">
<path d="M298.56 372.178L288.745 370.374C278.411 368.475 271.134 358.035 264.739 349.7C256.78 339.327 242.705 332.978 236.372 338.361C230.577 343.286 232.505 346.207 232.017 348.611C222.877 347.608 224.526 349.389 218.668 356.537C215.335 360.605 207.527 356.307 204.741 354.342C204.418 353.821 203.794 353.021 203.731 353.486C203.721 353.559 204.097 353.888 204.741 354.342C204.786 354.415 204.825 354.483 204.857 354.541C209.282 362.793 205.884 360.741 203.946 368.789C202.509 374.757 206.897 378.837 207.428 382.487C207.877 385.571 202.5 387.219 205.644 396.343C208.476 404.559 227.854 408.907 240.715 412.334C250.634 414.976 270.695 420.6 285.201 423.824C287.765 424.394 290.3 422.828 290.995 420.294L302.478 378.418C303.253 375.592 301.442 372.708 298.56 372.178Z" fill="#864B3F"/>
</mask>
<g mask="url(#mask0_835_445)">
<path d="M223.167 363.709L205.191 359.584" stroke="#864A3F" stroke-width="3" stroke-linecap="round"/>
<path d="M231.257 384.006L207.393 381.937" stroke="#864A3F" stroke-width="3" stroke-linecap="round"/>
</g>
<path d="M221.786 367.681C220.983 363.394 230.41 351.894 241.248 343.29C248.083 338.912 252.681 339.609 257.533 342.555C261.77 345.127 261.249 358.1 261.478 357.773C245.931 380.457 223.954 379.266 221.786 367.681Z" fill="url(#paint9_linear_835_445)"/>
<path opacity="0.1" d="M220.687 169.02L246.948 137.286V147.686L220.687 179.42V169.02Z" fill="white"/>
<path opacity="0.3" d="M220.687 146.79L246.948 115.055V130.746L220.687 162.481V146.79Z" fill="white"/>
<path fill-rule="evenodd" clip-rule="evenodd" d="M240.809 195.486C241.479 196.234 242.223 196.912 243.03 197.51L237.702 202.773C232.575 207.836 230.326 215.131 231.711 222.202L232.964 228.595C233.123 229.408 232.593 230.197 231.78 230.356C230.967 230.515 230.179 229.985 230.02 229.172L228.767 222.779C227.189 214.721 229.752 206.409 235.593 200.639L240.809 195.486Z" fill="#6C3034"/>
<path d="M225.185 200.636C225.662 201.313 226.598 201.476 227.275 200.999C227.953 200.522 228.115 199.586 227.638 198.909L225.185 200.636ZM220.31 193.713L225.185 200.636L227.638 198.909L222.763 191.986L220.31 193.713Z" fill="#6C3034"/>
<path fill-rule="evenodd" clip-rule="evenodd" d="M217.419 253.905L217.348 249.447L226.021 258.683C229.416 262.298 231.306 267.072 231.306 272.031V325.164C231.306 325.993 230.635 326.664 229.806 326.664C228.978 326.664 228.306 325.993 228.306 325.164V272.031C228.306 267.835 226.707 263.796 223.834 260.736L217.419 253.905Z" fill="#6C3034"/>
<path fill-rule="evenodd" clip-rule="evenodd" d="M220.317 435.144L220.245 430.685L228.919 439.921C232.314 443.537 234.204 448.31 234.204 453.27V506.403C234.204 507.231 233.532 507.903 232.704 507.903C231.875 507.903 231.204 507.231 231.204 506.403V453.27C231.204 449.073 229.605 445.034 226.732 441.975L220.317 435.144Z" fill="#6C3034"/>
<path fill-rule="evenodd" clip-rule="evenodd" d="M250.533 225.135L250.461 229.59L247.726 232.498C244.849 235.559 243.247 239.601 243.247 243.802V270.574C243.247 271.402 242.575 272.074 241.747 272.074C240.918 272.074 240.247 271.402 240.247 270.574V243.802C240.247 238.837 242.14 234.06 245.541 230.443L250.533 225.135Z" fill="#6C3034"/>
<path d="M483.814 472.772L475.33 464.571C466.559 456.093 461.606 444.416 461.606 432.217V390.111" stroke="#1F1FB4" stroke-width="3" stroke-linecap="round"/>
<path d="M464.703 475.791V475.791C451.221 481.633 442.496 494.923 442.496 509.615V512.841" stroke="#1F1FB4" stroke-width="3" stroke-linecap="round"/>
<path d="M556.305 474.926L566.024 485.081C574.039 493.457 578.513 504.602 578.513 516.195V564.28" stroke="#1F1FB4" stroke-width="3" stroke-linecap="round"/>
<path d="M567.409 479.715V479.715C580.87 474.023 589.617 460.828 589.617 446.214V443.557" stroke="#1F1FB4" stroke-width="3" stroke-linecap="round"/>
<path d="M529.069 478.407V478.407C514.487 477.431 501.906 467.822 497.126 454.011L496.258 451.501" stroke="#1F1FB4" stroke-width="3" stroke-linecap="round"/>
<path d="M210.554 241.835L217.968 249.692L221.993 233.638L212.174 232.82C211.008 232.723 210.008 233.643 210.008 234.813V240.462C210.008 240.973 210.203 241.464 210.554 241.835Z" fill="#904E3F"/>
<path d="M253.186 479.046L245.771 471.188L241.747 487.242L251.565 488.061C252.731 488.158 253.731 487.238 253.731 486.068V480.418C253.731 479.908 253.536 479.417 253.186 479.046Z" fill="#904E3F"/>
<rect x="425.929" y="469.228" width="192.507" height="15.5713" rx="7.78565" fill="url(#paint10_linear_835_445)"/>
<path fill-rule="evenodd" clip-rule="evenodd" d="M437.088 484.799C440.752 482.219 443.692 479.86 446.211 477.383C448.718 474.918 450.827 472.316 452.817 469.227H456.349C453.962 473.196 451.434 476.454 448.315 479.522C446.487 481.319 444.466 483.042 442.167 484.799H437.088ZM476.183 484.799C479.378 482.743 481.985 480.717 484.26 478.463C486.884 475.864 489.1 472.928 491.265 469.227H494.716C492.183 473.808 489.58 477.416 486.371 480.594C484.873 482.079 483.251 483.461 481.458 484.799H476.183ZM515.233 484.799C518.097 483.05 520.45 481.222 522.516 479.134C525.171 476.45 527.398 473.293 529.625 469.227H533.027C530.461 474.138 527.875 477.983 524.648 481.244C523.39 482.515 522.044 483.689 520.576 484.799H515.233ZM557.649 484.799H552.426C555.832 482.558 558.551 480.395 560.888 478.043C563.433 475.483 565.557 472.668 567.624 469.227H571.098C568.657 473.523 566.151 477.004 563.016 480.158C561.406 481.779 559.64 483.302 557.649 484.799ZM595.606 484.799H590.443C593.616 482.665 596.234 480.592 598.557 478.3C601.172 475.721 603.442 472.836 605.707 469.227H609.223C606.541 473.733 603.862 477.281 600.664 480.436C599.11 481.969 597.442 483.401 595.606 484.799Z" fill="#6C3034"/>
<path d="M478.889 469.228H428.865C424.447 469.228 420.865 472.809 420.865 477.228V525.357C420.865 529.775 424.447 533.357 428.865 533.357H478.889V469.228Z" fill="#6C3034"/>
<rect width="21.3768" height="64.1289" rx="10.6884" transform="matrix(-1 0 0 1 489.575 469.228)" fill="#904E3F"/>
<path d="M468.031 501.293H421.142" stroke="black" stroke-width="3"/>
<path d="M489.575 501.293L468.189 501.293" stroke="#6C3034" stroke-width="3"/>
<circle r="4.35484" transform="matrix(-1 0 0 1 444.586 489.623)" fill="black"/>
<path d="M189.253 -2.78686C189.505 -3.94808 191.161 -3.94808 191.413 -2.78686L193.36 6.21013C194.188 10.0356 196.733 13.2658 200.259 14.9654L201.609 15.6161C202.442 16.0178 202.442 17.2045 201.609 17.6062L200.259 18.2569C196.733 19.9565 194.188 23.1867 193.36 27.0122L191.413 36.0092C191.161 37.1704 189.505 37.1704 189.253 36.0092L187.306 27.0122C186.478 23.1867 183.933 19.9565 180.407 18.2569L179.057 17.6062C178.224 17.2045 178.224 16.0178 179.057 15.6161L180.407 14.9654C183.933 13.2658 186.478 10.0356 187.306 6.21014L189.253 -2.78686Z" fill="#EB459F"/>
<path d="M175.09 185.169V188.107" stroke="white" stroke-width="3" stroke-linecap="round"/>
<path d="M183.366 193.445L180.428 193.445" stroke="white" stroke-width="3" stroke-linecap="round"/>
<path d="M175.09 198.781V201.719" stroke="white" stroke-width="3" stroke-linecap="round"/>
<path d="M169.753 193.445L166.815 193.445" stroke="white" stroke-width="3" stroke-linecap="round"/>
<path d="M288.909 83.0067V85.9446" stroke="white" stroke-width="3" stroke-linecap="round"/>
<path d="M297.184 91.2822L294.246 91.2822" stroke="white" stroke-width="3" stroke-linecap="round"/>
<path d="M288.909 96.6187V99.5566" stroke="white" stroke-width="3" stroke-linecap="round"/>
<path d="M283.571 91.2822L280.633 91.2822" stroke="white" stroke-width="3" stroke-linecap="round"/>
<path d="M349.775 99.0196C346.683 95.4804 347.878 89.9616 352.157 88.0181L371.256 79.3425C374.425 77.9031 378.17 79.0049 380.054 81.9309L389.642 96.8169C391.74 100.074 390.8 104.415 387.543 106.512L372.657 116.1C369.731 117.985 365.865 117.439 363.576 114.818L349.775 99.0196Z" fill="#2859D1"/>
<path d="M348.223 92.8244L366.078 96.6898C369.076 97.3388 370.98 100.295 370.331 103.292L367.351 117.054C365.928 116.741 364.596 115.985 363.576 114.818L349.775 99.0196C348.205 97.2225 347.74 94.915 348.223 92.8244Z" fill="#2828C6"/>
</g>
<defs>
<linearGradient id="paint0_linear_835_445" x1="125.521" y1="507.58" x2="164.965" y2="439.26" gradientUnits="userSpaceOnUse">
<stop stop-color="#D9F2FF"/>
<stop offset="1" stop-color="#D9F2FF" stop-opacity="0"/>
</linearGradient>
<linearGradient id="paint1_linear_835_445" x1="125.521" y1="507.58" x2="164.965" y2="439.26" gradientUnits="userSpaceOnUse">
<stop stop-color="#D9F2FF"/>
<stop offset="1" stop-color="#8DDAFF"/>
</linearGradient>
<linearGradient id="paint2_linear_835_445" x1="133.627" y1="401.16" x2="159.113" y2="419.761" gradientUnits="userSpaceOnUse">
<stop stop-color="#66BAE3"/>
<stop offset="1" stop-color="#66BAE3" stop-opacity="0"/>
</linearGradient>
<linearGradient id="paint3_linear_835_445" x1="74.9247" y1="298.779" x2="75.8309" y2="359.414" gradientUnits="userSpaceOnUse">
<stop stop-color="#FFC619"/>
<stop offset="1" stop-color="#FA8515"/>
</linearGradient>
<linearGradient id="paint4_linear_835_445" x1="961.72" y1="440.387" x2="961.72" y2="385.217" gradientUnits="userSpaceOnUse">
<stop stop-color="#D9F2FF"/>
<stop offset="1" stop-color="#D9F2FF" stop-opacity="0"/>
</linearGradient>
<linearGradient id="paint5_linear_835_445" x1="957.364" y1="396.29" x2="934.485" y2="441.06" gradientUnits="userSpaceOnUse">
<stop stop-color="#3442D9"/>
<stop offset="0.927058" stop-color="#3442D9" stop-opacity="0"/>
</linearGradient>
<linearGradient id="paint6_linear_835_445" x1="527.032" y1="455.902" x2="536.243" y2="326.956" gradientUnits="userSpaceOnUse">
<stop stop-color="#2828C6"/>
<stop offset="1" stop-color="#2859D1"/>
</linearGradient>
<linearGradient id="paint7_linear_835_445" x1="233.818" y1="127.765" x2="233.818" y2="206.235" gradientUnits="userSpaceOnUse">
<stop stop-color="#FF78B9"/>
<stop offset="1" stop-color="#FF78B9" stop-opacity="0"/>
</linearGradient>
<linearGradient id="paint8_linear_835_445" x1="233.746" y1="350.844" x2="233.746" y2="430.28" gradientUnits="userSpaceOnUse">
<stop offset="0.578078" stop-color="#6B2F34"/>
<stop offset="1" stop-color="#6B2F34" stop-opacity="0"/>
</linearGradient>
<linearGradient id="paint9_linear_835_445" x1="252.934" y1="357.979" x2="241.182" y2="376.033" gradientUnits="userSpaceOnUse">
<stop stop-color="#C65C47"/>
<stop offset="1" stop-color="#DB806E"/>
</linearGradient>
<linearGradient id="paint10_linear_835_445" x1="497.918" y1="484.799" x2="544.736" y2="484.799" gradientUnits="userSpaceOnUse">
<stop stop-color="#6C3034"/>
<stop offset="1" stop-color="#904E3F"/>
</linearGradient>
<clipPath id="clip0_835_445">
<rect width="1024" height="576" fill="white"/>
</clipPath>
</defs>
</svg>
